<?xml version="1.0" encoding="UTF-8" standalone="no"?><svg xmlns="http://www.w3.org/2000/svg" xmlns:xlink="http://www.w3.org/1999/xlink" contentStyleType="text/css" height="595px" preserveAspectRatio="none" style="width:1173px;height:595px;background:#FFFFFF;" version="1.1" viewBox="0 0 1173 595" width="1173px" zoomAndPan="magnify"><defs/><g><!--class DataCite--><g id="elem_DataCite"><rect codeLine="1" fill="#F1F1F1" height="96.8906" id="DataCite" rx="2.5" ry="2.5" style="stroke:#181818;stroke-width:0.5;" width="331" x="7" y="7"/><ellipse cx="136.25" cy="23" fill="#ADD1B2" rx="11" ry="11" style="stroke:#181818;stroke-width:1.0;"/><path d="M138.5938,18.6719 C137.6563,18.2344 137.0625,18.0938 136.1875,18.0938 C133.5625,18.0938 131.5625,20.1719 131.5625,22.8906 L131.5625,24.0156 C131.5625,26.5938 133.6719,28.4844 136.5625,28.4844 C137.7813,28.4844 138.9375,28.1875 139.6875,27.6406 C140.2656,27.2344 140.5938,26.7813 140.5938,26.3906 C140.5938,25.9375 140.2031,25.5469 139.7344,25.5469 C139.5156,25.5469 139.3125,25.625 139.125,25.8125 C138.6719,26.2969 138.6719,26.2969 138.4844,26.3906 C138.0625,26.6563 137.375,26.7813 136.6094,26.7813 C134.5625,26.7813 133.2656,25.6875 133.2656,23.9844 L133.2656,22.8906 C133.2656,21.1094 134.5156,19.7969 136.25,19.7969 C136.8281,19.7969 137.4375,19.9531 137.9063,20.2031 C138.3906,20.4844 138.5625,20.7031 138.6563,21.1094 C138.7188,21.5156 138.75,21.6406 138.8906,21.7656 C139.0313,21.9063 139.2656,22.0156 139.4844,22.0156 C139.75,22.0156 140.0156,21.875 140.1875,21.6563 C140.2969,21.5 140.3281,21.3125 140.3281,20.8906 L140.3281,19.4688 C140.3281,19.0313 140.3125,18.9063 140.2188,18.75 C140.0625,18.4844 139.7813,18.3438 139.4844,18.3438 C139.1875,18.3438 138.9844,18.4375 138.7656,18.75 L138.5938,18.6719 Z " fill="#000000"/><text fill="#000000" font-family="sans-serif" font-size="14" lengthAdjust="spacing" textLength="64" x="156.75" y="27.8467">DataCite</text><line style="stroke:#181818;stroke-width:0.5;" x1="8" x2="337" y1="39" y2="39"/><text fill="#000000" font-family="sans-serif" font-size="14" lengthAdjust="spacing" textLength="319" x="13" y="55.9951">DataCite provides DOIs if required metadata</text><text fill="#000000" font-family="sans-serif" font-size="14" lengthAdjust="spacing" textLength="207" x="13" y="72.292">fields and a URL are provided</text><text fill="#000000" font-family="sans-serif" font-size="14" lengthAdjust="spacing" textLength="144" x="13" y="88.5889">https://datacite.org</text><line style="stroke:#181818;stroke-width:0.5;" x1="8" x2="337" y1="95.8906" y2="95.8906"/></g><!--class OME--><g id="elem_OME"><rect codeLine="7" fill="#F1F1F1" height="80.5938" id="OME" rx="2.5" ry="2.5" style="stroke:#181818;stroke-width:0.5;" width="389" x="373" y="15"/><ellipse cx="547.25" cy="31" fill="#ADD1B2" rx="11" ry="11" style="stroke:#181818;stroke-width:1.0;"/><path d="M549.5938,26.6719 C548.6563,26.2344 548.0625,26.0938 547.1875,26.0938 C544.5625,26.0938 542.5625,28.1719 542.5625,30.8906 L542.5625,32.0156 C542.5625,34.5938 544.6719,36.4844 547.5625,36.4844 C548.7813,36.4844 549.9375,36.1875 550.6875,35.6406 C551.2656,35.2344 551.5938,34.7813 551.5938,34.3906 C551.5938,33.9375 551.2031,33.5469 550.7344,33.5469 C550.5156,33.5469 550.3125,33.625 550.125,33.8125 C549.6719,34.2969 549.6719,34.2969 549.4844,34.3906 C549.0625,34.6563 548.375,34.7813 547.6094,34.7813 C545.5625,34.7813 544.2656,33.6875 544.2656,31.9844 L544.2656,30.8906 C544.2656,29.1094 545.5156,27.7969 547.25,27.7969 C547.8281,27.7969 548.4375,27.9531 548.9063,28.2031 C549.3906,28.4844 549.5625,28.7031 549.6563,29.1094 C549.7188,29.5156 549.75,29.6406 549.8906,29.7656 C550.0313,29.9063 550.2656,30.0156 550.4844,30.0156 C550.75,30.0156 551.0156,29.875 551.1875,29.6563 C551.2969,29.5 551.3281,29.3125 551.3281,28.8906 L551.3281,27.4688 C551.3281,27.0313 551.3125,26.9063 551.2188,26.75 C551.0625,26.4844 550.7813,26.3438 550.4844,26.3438 C550.1875,26.3438 549.9844,26.4375 549.7656,26.75 L549.5938,26.6719 Z " fill="#000000"/><text fill="#000000" font-family="sans-serif" font-size="14" lengthAdjust="spacing" textLength="32" x="567.75" y="35.8467">OME</text><line style="stroke:#181818;stroke-width:0.5;" x1="374" x2="761" y1="47" y2="47"/><text fill="#000000" font-family="sans-serif" font-size="14" lengthAdjust="spacing" textLength="221" x="379" y="63.9951">Open Microscopy Environment</text><text fill="#000000" font-family="sans-serif" font-size="14" lengthAdjust="spacing" textLength="377" x="379" y="80.292">https://docs.openmicroscopy.org/ome-model/latest</text><line style="stroke:#181818;stroke-width:0.5;" x1="374" x2="761" y1="87.5938" y2="87.5938"/></g><!--class 3D_MMS--><g id="elem_3D_MMS"><rect codeLine="12" fill="#F1F1F1" height="80.5938" id="3D_MMS" rx="2.5" ry="2.5" style="stroke:#181818;stroke-width:0.5;" width="205" x="267" y="196"/><ellipse cx="335.25" cy="212" fill="#ADD1B2" rx="11" ry="11" style="stroke:#181818;stroke-width:1.0;"/><path d="M337.5938,207.6719 C336.6563,207.2344 336.0625,207.0938 335.1875,207.0938 C332.5625,207.0938 330.5625,209.1719 330.5625,211.8906 L330.5625,213.0156 C330.5625,215.5938 332.6719,217.4844 335.5625,217.4844 C336.7813,217.4844 337.9375,217.1875 338.6875,216.6406 C339.2656,216.2344 339.5938,215.7813 339.5938,215.3906 C339.5938,214.9375 339.2031,214.5469 338.7344,214.5469 C338.5156,214.5469 338.3125,214.625 338.125,214.8125 C337.6719,215.2969 337.6719,215.2969 337.4844,215.3906 C337.0625,215.6563 336.375,215.7813 335.6094,215.7813 C333.5625,215.7813 332.2656,214.6875 332.2656,212.9844 L332.2656,211.8906 C332.2656,210.1094 333.5156,208.7969 335.25,208.7969 C335.8281,208.7969 336.4375,208.9531 336.9063,209.2031 C337.3906,209.4844 337.5625,209.7031 337.6563,210.1094 C337.7188,210.5156 337.75,210.6406 337.8906,210.7656 C338.0313,210.9063 338.2656,211.0156 338.4844,211.0156 C338.75,211.0156 339.0156,210.875 339.1875,210.6563 C339.2969,210.5 339.3281,210.3125 339.3281,209.8906 L339.3281,208.4688 C339.3281,208.0313 339.3125,207.9063 339.2188,207.75 C339.0625,207.4844 338.7813,207.3438 338.4844,207.3438 C338.1875,207.3438 337.9844,207.4375 337.7656,207.75 L337.5938,207.6719 Z " fill="#000000"/><text fill="#000000" font-family="sans-serif" font-size="14" lengthAdjust="spacing" textLength="60" x="355.75" y="216.8467">3D_MMS</text><line style="stroke:#181818;stroke-width:0.5;" x1="268" x2="471" y1="228" y2="228"/><text fill="#000000" font-family="sans-serif" font-size="14" lengthAdjust="spacing" textLength="41" x="273" y="244.9951">DORY</text><text fill="#000000" font-family="sans-serif" font-size="14" lengthAdjust="spacing" textLength="193" x="273" y="261.292">https://doryworkspace.org</text><line style="stroke:#181818;stroke-width:0.5;" x1="268" x2="471" y1="268.5938" y2="268.5938"/></g><!--class Essential_3D_MMS--><g id="elem_Essential_3D_MMS"><rect codeLine="17" fill="#F1F1F1" height="48" id="Essential_3D_MMS" rx="2.5" ry="2.5" style="stroke:#181818;stroke-width:0.5;" width="163" x="182" y="377"/><ellipse cx="197" cy="393" fill="#ADD1B2" rx="11" ry="11" style="stroke:#181818;stroke-width:1.0;"/><path d="M199.3438,388.6719 C198.4063,388.2344 197.8125,388.0938 196.9375,388.0938 C194.3125,388.0938 192.3125,390.1719 192.3125,392.8906 L192.3125,394.0156 C192.3125,396.5938 194.4219,398.4844 197.3125,398.4844 C198.5313,398.4844 199.6875,398.1875 200.4375,397.6406 C201.0156,397.2344 201.3438,396.7813 201.3438,396.3906 C201.3438,395.9375 200.9531,395.5469 200.4844,395.5469 C200.2656,395.5469 200.0625,395.625 199.875,395.8125 C199.4219,396.2969 199.4219,396.2969 199.2344,396.3906 C198.8125,396.6563 198.125,396.7813 197.3594,396.7813 C195.3125,396.7813 194.0156,395.6875 194.0156,393.9844 L194.0156,392.8906 C194.0156,391.1094 195.2656,389.7969 197,389.7969 C197.5781,389.7969 198.1875,389.9531 198.6563,390.2031 C199.1406,390.4844 199.3125,390.7031 199.4063,391.1094 C199.4688,391.5156 199.5,391.6406 199.6406,391.7656 C199.7813,391.9063 200.0156,392.0156 200.2344,392.0156 C200.5,392.0156 200.7656,391.875 200.9375,391.6563 C201.0469,391.5 201.0781,391.3125 201.0781,390.8906 L201.0781,389.4688 C201.0781,389.0313 201.0625,388.9063 200.9688,388.75 C200.8125,388.4844 200.5313,388.3438 200.2344,388.3438 C199.9375,388.3438 199.7344,388.4375 199.5156,388.75 L199.3438,388.6719 Z " fill="#000000"/><text fill="#000000" font-family="sans-serif" font-size="14" lengthAdjust="spacing" textLength="131" x="211" y="397.8467">Essential_3D_MMS</text><line style="stroke:#181818;stroke-width:0.5;" x1="183" x2="344" y1="409" y2="409"/><line style="stroke:#181818;stroke-width:0.5;" x1="183" x2="344" y1="417" y2="417"/></g><!--class BossDB--><g id="elem_BossDB"><rect codeLine="20" fill="#F1F1F1" height="64.2969" id="BossDB" rx="2.5" ry="2.5" style="stroke:#181818;stroke-width:0.5;" width="212" x="518.5" y="369"/><ellipse cx="593.25" cy="385" fill="#ADD1B2" rx="11" ry="11" style="stroke:#181818;stroke-width:1.0;"/><path d="M595.5938,380.6719 C594.6563,380.2344 594.0625,380.0938 593.1875,380.0938 C590.5625,380.0938 588.5625,382.1719 588.5625,384.8906 L588.5625,386.0156 C588.5625,388.5938 590.6719,390.4844 593.5625,390.4844 C594.7813,390.4844 595.9375,390.1875 596.6875,389.6406 C597.2656,389.2344 597.5938,388.7813 597.5938,388.3906 C597.5938,387.9375 597.2031,387.5469 596.7344,387.5469 C596.5156,387.5469 596.3125,387.625 596.125,387.8125 C595.6719,388.2969 595.6719,388.2969 595.4844,388.3906 C595.0625,388.6563 594.375,388.7813 593.6094,388.7813 C591.5625,388.7813 590.2656,387.6875 590.2656,385.9844 L590.2656,384.8906 C590.2656,383.1094 591.5156,381.7969 593.25,381.7969 C593.8281,381.7969 594.4375,381.9531 594.9063,382.2031 C595.3906,382.4844 595.5625,382.7031 595.6563,383.1094 C595.7188,383.5156 595.75,383.6406 595.8906,383.7656 C596.0313,383.9063 596.2656,384.0156 596.4844,384.0156 C596.75,384.0156 597.0156,383.875 597.1875,383.6563 C597.2969,383.5 597.3281,383.3125 597.3281,382.8906 L597.3281,381.4688 C597.3281,381.0313 597.3125,380.9063 597.2188,380.75 C597.0625,380.4844 596.7813,380.3438 596.4844,380.3438 C596.1875,380.3438 595.9844,380.4375 595.7656,380.75 L595.5938,380.6719 Z " fill="#000000"/><text fill="#000000" font-family="sans-serif" font-size="14" lengthAdjust="spacing" textLength="54" x="613.75" y="389.8467">BossDB</text><line style="stroke:#181818;stroke-width:0.5;" x1="519.5" x2="729.5" y1="401" y2="401"/><text fill="#000000" font-family="sans-serif" font-size="14" lengthAdjust="spacing" textLength="200" x="524.5" y="417.9951">Existing BossDB data model</text><line style="stroke:#181818;stroke-width:0.5;" x1="519.5" x2="729.5" y1="425.2969" y2="425.2969"/></g><!--class NeMO--><g id="elem_NeMO"><rect codeLine="24" fill="#F1F1F1" height="64.2969" id="NeMO" rx="2.5" ry="2.5" style="stroke:#181818;stroke-width:0.5;" width="74" x="797.5" y="23.5"/><ellipse cx="812.5" cy="39.5" fill="#ADD1B2" rx="11" ry="11" style="stroke:#181818;stroke-width:1.0;"/><path d="M814.8438,35.1719 C813.9063,34.7344 813.3125,34.5938 812.4375,34.5938 C809.8125,34.5938 807.8125,36.6719 807.8125,39.3906 L807.8125,40.5156 C807.8125,43.0938 809.9219,44.9844 812.8125,44.9844 C814.0313,44.9844 815.1875,44.6875 815.9375,44.1406 C816.5156,43.7344 816.8438,43.2813 816.8438,42.8906 C816.8438,42.4375 816.4531,42.0469 815.9844,42.0469 C815.7656,42.0469 815.5625,42.125 815.375,42.3125 C814.9219,42.7969 814.9219,42.7969 814.7344,42.8906 C814.3125,43.1563 813.625,43.2813 812.8594,43.2813 C810.8125,43.2813 809.5156,42.1875 809.5156,40.4844 L809.5156,39.3906 C809.5156,37.6094 810.7656,36.2969 812.5,36.2969 C813.0781,36.2969 813.6875,36.4531 814.1563,36.7031 C814.6406,36.9844 814.8125,37.2031 814.9063,37.6094 C814.9688,38.0156 815,38.1406 815.1406,38.2656 C815.2813,38.4063 815.5156,38.5156 815.7344,38.5156 C816,38.5156 816.2656,38.375 816.4375,38.1563 C816.5469,38 816.5781,37.8125 816.5781,37.3906 L816.5781,35.9688 C816.5781,35.5313 816.5625,35.4063 816.4688,35.25 C816.3125,34.9844 816.0313,34.8438 815.7344,34.8438 C815.4375,34.8438 815.2344,34.9375 815.0156,35.25 L814.8438,35.1719 Z " fill="#000000"/><text fill="#000000" font-family="sans-serif" font-size="14" lengthAdjust="spacing" textLength="42" x="826.5" y="44.3467">NeMO</text><line style="stroke:#181818;stroke-width:0.5;" x1="798.5" x2="870.5" y1="55.5" y2="55.5"/><text fill="#000000" font-family="sans-serif" font-size="14" lengthAdjust="spacing" textLength="53" x="803.5" y="72.4951">BdBag?</text><line style="stroke:#181818;stroke-width:0.5;" x1="798.5" x2="870.5" y1="79.7969" y2="79.7969"/></g><!--class BIL--><g id="elem_BIL"><rect codeLine="28" fill="#F1F1F1" height="96.8906" id="BIL" rx="2.5" ry="2.5" style="stroke:#181818;stroke-width:0.5;" width="259" x="907" y="7"/><ellipse cx="1021.25" cy="23" fill="#ADD1B2" rx="11" ry="11" style="stroke:#181818;stroke-width:1.0;"/><path d="M1023.5938,18.6719 C1022.6563,18.2344 1022.0625,18.0938 1021.1875,18.0938 C1018.5625,18.0938 1016.5625,20.1719 1016.5625,22.8906 L1016.5625,24.0156 C1016.5625,26.5938 1018.6719,28.4844 1021.5625,28.4844 C1022.7813,28.4844 1023.9375,28.1875 1024.6875,27.6406 C1025.2656,27.2344 1025.5938,26.7813 1025.5938,26.3906 C1025.5938,25.9375 1025.2031,25.5469 1024.7344,25.5469 C1024.5156,25.5469 1024.3125,25.625 1024.125,25.8125 C1023.6719,26.2969 1023.6719,26.2969 1023.4844,26.3906 C1023.0625,26.6563 1022.375,26.7813 1021.6094,26.7813 C1019.5625,26.7813 1018.2656,25.6875 1018.2656,23.9844 L1018.2656,22.8906 C1018.2656,21.1094 1019.5156,19.7969 1021.25,19.7969 C1021.8281,19.7969 1022.4375,19.9531 1022.9063,20.2031 C1023.3906,20.4844 1023.5625,20.7031 1023.6563,21.1094 C1023.7188,21.5156 1023.75,21.6406 1023.8906,21.7656 C1024.0313,21.9063 1024.2656,22.0156 1024.4844,22.0156 C1024.75,22.0156 1025.0156,21.875 1025.1875,21.6563 C1025.2969,21.5 1025.3281,21.3125 1025.3281,20.8906 L1025.3281,19.4688 C1025.3281,19.0313 1025.3125,18.9063 1025.2188,18.75 C1025.0625,18.4844 1024.7813,18.3438 1024.4844,18.3438 C1024.1875,18.3438 1023.9844,18.4375 1023.7656,18.75 L1023.5938,18.6719 Z " fill="#000000"/><text fill="#000000" font-family="sans-serif" font-size="14" lengthAdjust="spacing" textLength="22" x="1041.75" y="27.8467">BIL</text><line style="stroke:#181818;stroke-width:0.5;" x1="908" x2="1165" y1="39" y2="39"/><text fill="#000000" font-family="sans-serif" font-size="14" lengthAdjust="spacing" textLength="190" x="913" y="55.9951">Required metadata largely</text><text fill="#000000" font-family="sans-serif" font-size="14" lengthAdjust="spacing" textLength="247" x="913" y="72.292">represented in Essential_3D_MMS;</text><text fill="#000000" font-family="sans-serif" font-size="14" lengthAdjust="spacing" textLength="222" x="913" y="88.5889">Optional metadata in 3D_MMS.</text><line style="stroke:#181818;stroke-width:0.5;" x1="908" x2="1165" y1="95.8906" y2="95.8906"/></g><!--class Proposed--><g id="elem_Proposed"><rect codeLine="34" fill="#F1F1F1" height="48" id="Proposed" rx="2.5" ry="2.5" style="stroke:#181818;stroke-width:0.5;" width="100" x="574.5" y="540"/><ellipse cx="589.5" cy="556" fill="#ADD1B2" rx="11" ry="11" style="stroke:#181818;stroke-width:1.0;"/><path d="M591.8438,551.6719 C590.9063,551.2344 590.3125,551.0938 589.4375,551.0938 C586.8125,551.0938 584.8125,553.1719 584.8125,555.8906 L584.8125,557.0156 C584.8125,559.5938 586.9219,561.4844 589.8125,561.4844 C591.0313,561.4844 592.1875,561.1875 592.9375,560.6406 C593.5156,560.2344 593.8438,559.7813 593.8438,559.3906 C593.8438,558.9375 593.4531,558.5469 592.9844,558.5469 C592.7656,558.5469 592.5625,558.625 592.375,558.8125 C591.9219,559.2969 591.9219,559.2969 591.7344,559.3906 C591.3125,559.6563 590.625,559.7813 589.8594,559.7813 C587.8125,559.7813 586.5156,558.6875 586.5156,556.9844 L586.5156,555.8906 C586.5156,554.1094 587.7656,552.7969 589.5,552.7969 C590.0781,552.7969 590.6875,552.9531 591.1563,553.2031 C591.6406,553.4844 591.8125,553.7031 591.9063,554.1094 C591.9688,554.5156 592,554.6406 592.1406,554.7656 C592.2813,554.9063 592.5156,555.0156 592.7344,555.0156 C593,555.0156 593.2656,554.875 593.4375,554.6563 C593.5469,554.5 593.5781,554.3125 593.5781,553.8906 L593.5781,552.4688 C593.5781,552.0313 593.5625,551.9063 593.4688,551.75 C593.3125,551.4844 593.0313,551.3438 592.7344,551.3438 C592.4375,551.3438 592.2344,551.4375 592.0156,551.75 L591.8438,551.6719 Z " fill="#000000"/><text fill="#000000" font-family="sans-serif" font-size="14" lengthAdjust="spacing" textLength="68" x="603.5" y="560.8467">Proposed</text><line style="stroke:#181818;stroke-width:0.5;" x1="575.5" x2="673.5" y1="572" y2="572"/><line style="stroke:#181818;stroke-width:0.5;" x1="575.5" x2="673.5" y1="580" y2="580"/></g><!--class New_EM--><g id="elem_New_EM"><rect codeLine="37" fill="#F1F1F1" height="48" id="New_EM" rx="2.5" ry="2.5" style="stroke:#181818;stroke-width:0.5;" width="90" x="765.5" y="377"/><ellipse cx="780.5" cy="393" fill="#ADD1B2" rx="11" ry="11" style="stroke:#181818;stroke-width:1.0;"/><path d="M782.8438,388.6719 C781.9063,388.2344 781.3125,388.0938 780.4375,388.0938 C777.8125,388.0938 775.8125,390.1719 775.8125,392.8906 L775.8125,394.0156 C775.8125,396.5938 777.9219,398.4844 780.8125,398.4844 C782.0313,398.4844 783.1875,398.1875 783.9375,397.6406 C784.5156,397.2344 784.8438,396.7813 784.8438,396.3906 C784.8438,395.9375 784.4531,395.5469 783.9844,395.5469 C783.7656,395.5469 783.5625,395.625 783.375,395.8125 C782.9219,396.2969 782.9219,396.2969 782.7344,396.3906 C782.3125,396.6563 781.625,396.7813 780.8594,396.7813 C778.8125,396.7813 777.5156,395.6875 777.5156,393.9844 L777.5156,392.8906 C777.5156,391.1094 778.7656,389.7969 780.5,389.7969 C781.0781,389.7969 781.6875,389.9531 782.1563,390.2031 C782.6406,390.4844 782.8125,390.7031 782.9063,391.1094 C782.9688,391.5156 783,391.6406 783.1406,391.7656 C783.2813,391.9063 783.5156,392.0156 783.7344,392.0156 C784,392.0156 784.2656,391.875 784.4375,391.6563 C784.5469,391.5 784.5781,391.3125 784.5781,390.8906 L784.5781,389.4688 C784.5781,389.0313 784.5625,388.9063 784.4688,388.75 C784.3125,388.4844 784.0313,388.3438 783.7344,388.3438 C783.4375,388.3438 783.2344,388.4375 783.0156,388.75 L782.8438,388.6719 Z " fill="#000000"/><text fill="#000000" font-family="sans-serif" font-size="14" lengthAdjust="spacing" textLength="58" x="794.5" y="397.8467">New_EM</text><line style="stroke:#181818;stroke-width:0.5;" x1="766.5" x2="854.5" y1="409" y2="409"/><line style="stroke:#181818;stroke-width:0.5;" x1="766.5" x2="854.5" y1="417" y2="417"/></g><!--class New_XRM--><g id="elem_New_XRM"><rect codeLine="40" fill="#F1F1F1" height="48" id="New_XRM" rx="2.5" ry="2.5" style="stroke:#181818;stroke-width:0.5;" width="101" x="891" y="377"/><ellipse cx="906" cy="393" fill="#ADD1B2" rx="11" ry="11" style="stroke:#181818;stroke-width:1.0;"/><path d="M908.3438,388.6719 C907.4063,388.2344 906.8125,388.0938 905.9375,388.0938 C903.3125,388.0938 901.3125,390.1719 901.3125,392.8906 L901.3125,394.0156 C901.3125,396.5938 903.4219,398.4844 906.3125,398.4844 C907.5313,398.4844 908.6875,398.1875 909.4375,397.6406 C910.0156,397.2344 910.3438,396.7813 910.3438,396.3906 C910.3438,395.9375 909.9531,395.5469 909.4844,395.5469 C909.2656,395.5469 909.0625,395.625 908.875,395.8125 C908.4219,396.2969 908.4219,396.2969 908.2344,396.3906 C907.8125,396.6563 907.125,396.7813 906.3594,396.7813 C904.3125,396.7813 903.0156,395.6875 903.0156,393.9844 L903.0156,392.8906 C903.0156,391.1094 904.2656,389.7969 906,389.7969 C906.5781,389.7969 907.1875,389.9531 907.6563,390.2031 C908.1406,390.4844 908.3125,390.7031 908.4063,391.1094 C908.4688,391.5156 908.5,391.6406 908.6406,391.7656 C908.7813,391.9063 909.0156,392.0156 909.2344,392.0156 C909.5,392.0156 909.7656,391.875 909.9375,391.6563 C910.0469,391.5 910.0781,391.3125 910.0781,390.8906 L910.0781,389.4688 C910.0781,389.0313 910.0625,388.9063 909.9688,388.75 C909.8125,388.4844 909.5313,388.3438 909.2344,388.3438 C908.9375,388.3438 908.7344,388.4375 908.5156,388.75 L908.3438,388.6719 Z " fill="#000000"/><text fill="#000000" font-family="sans-serif" font-size="14" lengthAdjust="spacing" textLength="69" x="920" y="397.8467">New_XRM</text><line style="stroke:#181818;stroke-width:0.5;" x1="892" x2="991" y1="409" y2="409"/><line style="stroke:#181818;stroke-width:0.5;" x1="892" x2="991" y1="417" y2="417"/></g><!--link 3D_MMS to Essential_3D_MMS--><g id="link_3D_MMS_Essential_3D_MMS"><path codeLine="44" d="M341.511,277.342 C334.864,286.991 327.859,297.316 321.5,307 C307.25,328.702 291.715,353.687 280.312,372.292 " fill="none" id="3D_MMS-to-Essential_3D_MMS" style="stroke:#181818;stroke-width:1.0;"/><polygon fill="#181818" points="277.505,376.879,285.6142,371.2897,280.1146,372.614,278.7902,367.1144,277.505,376.879" style="stroke:#181818;stroke-width:1.0;"/><text fill="#000000" font-family="sans-serif" font-size="13" lengthAdjust="spacing" textLength="63" x="324" y="320.0669">metadata</text><text fill="#000000" font-family="sans-serif" font-size="13" lengthAdjust="spacing" textLength="66" x="322.5" y="335.1997">definitions</text></g><!--link OME to 3D_MMS--><g id="link_OME_3D_MMS"><path codeLine="45" d="M523.557,96.226 C492.027,124.731 449.572,163.112 417.214,192.364 " fill="none" id="OME-to-3D_MMS" style="stroke:#181818;stroke-width:1.0;"/><polygon fill="#181818" points="413.32,195.885,422.6786,192.8164,417.0289,192.5318,417.3135,186.8821,413.32,195.885" style="stroke:#181818;stroke-width:1.0;"/><text fill="#000000" font-family="sans-serif" font-size="13" lengthAdjust="spacing" textLength="63" x="483" y="147.0669">metadata</text><text fill="#000000" font-family="sans-serif" font-size="13" lengthAdjust="spacing" textLength="66" x="481.5" y="162.1997">definitions</text></g><!--link DataCite to 3D_MMS--><g id="link_DataCite_3D_MMS"><path codeLine="46" d="M225.034,104.234 C255.141,131.59 292.633,165.657 321.878,192.229 " fill="none" id="DataCite-to-3D_MMS" style="stroke:#181818;stroke-width:1.0;"/><polygon fill="#181818" points="325.766,195.762,321.7926,186.7502,322.0646,192.4006,316.4142,192.6726,325.766,195.762" style="stroke:#181818;stroke-width:1.0;"/><text fill="#000000" font-family="sans-serif" font-size="13" lengthAdjust="spacing" textLength="63" x="292" y="147.0669">metadata</text><text fill="#000000" font-family="sans-serif" font-size="13" lengthAdjust="spacing" textLength="66" x="290.5" y="162.1997">definitions</text></g><!--link BossDB to Proposed--><g id="link_BossDB_Proposed"><path codeLine="48" d="M624.5,433.042 C624.5,462.462 624.5,506.2705 624.5,534.7383 " fill="none" id="BossDB-to-Proposed" style="stroke:#181818;stroke-width:1.0;"/><polygon fill="#181818" points="624.5,539.8684,628.5,530.8684,624.5,534.8684,620.5,530.8684,624.5,539.8684" style="stroke:#181818;stroke-width:1.0;"/><text fill="#000000" font-family="sans-serif" font-size="13" lengthAdjust="spacing" textLength="53" x="632" y="476.0669">required</text><text fill="#000000" font-family="sans-serif" font-size="13" lengthAdjust="spacing" textLength="63" x="627" y="491.1997">metadata</text><text fill="#000000" font-family="sans-serif" font-size="13" lengthAdjust="spacing" textLength="66" x="625.5" y="506.3325">definitions</text></g><!--link Essential_3D_MMS to Proposed--><g id="link_Essential_3D_MMS_Proposed"><path codeLine="49" d="M269.485,425.443 C277.168,450.516 293.033,489.4374 321.5,510 C360.182,537.9417 492.518,552.7002 568.899,559.0648 " fill="none" id="Essential_3D_MMS-to-Proposed" style="stroke:#181818;stroke-width:1.0;"/><polygon fill="#181818" points="574.3,559.5086,565.6583,554.7841,569.3168,559.0986,565.0023,562.7571,574.3,559.5086" style="stroke:#181818;stroke-width:1.0;"/><text fill="#000000" font-family="sans-serif" font-size="13" lengthAdjust="spacing" textLength="53" x="329" y="476.0669">required</text><text fill="#000000" font-family="sans-serif" font-size="13" lengthAdjust="spacing" textLength="63" x="324" y="491.1997">metadata</text><text fill="#000000" font-family="sans-serif" font-size="13" lengthAdjust="spacing" textLength="66" x="322.5" y="506.3325">definitions</text></g><!--link 3D_MMS to Proposed--><g id="link_3D_MMS_Proposed"><path codeLine="50" d="M383.429,277.119 C386.788,286.868 390.323,297.295 393.5,307 C411.736,362.712 397.591,385.907 432.5,433 C467.888,480.739 526.307,516.649 569.429,538.4977 " fill="none" id="3D_MMS-to-Proposed" style="stroke:#181818;stroke-width:1.0;"/><polygon fill="#181818" points="574.08,540.8299,567.828,533.2198,569.6105,538.5885,564.2418,540.371,574.08,540.8299" style="stroke:#181818;stroke-width:1.0;"/><text fill="#000000" font-family="sans-serif" font-size="13" lengthAdjust="spacing" textLength="51" x="441" y="390.5669">optional</text><text fill="#000000" font-family="sans-serif" font-size="13" lengthAdjust="spacing" textLength="63" x="435" y="405.6997">metadata</text><text fill="#000000" font-family="sans-serif" font-size="13" lengthAdjust="spacing" textLength="66" x="433.5" y="420.8325">definitions</text></g><!--link New_EM to Proposed--><g id="link_New_EM_Proposed"><path codeLine="51" d="M789.195,425.063 C767.751,447.747 733.249,482.828 700.5,510 C689.254,519.331 676.419,528.7136 664.539,536.9362 " fill="none" id="New_EM-to-Proposed" style="stroke:#181818;stroke-width:1.0;"/><polygon fill="#181818" points="660.21,539.9109,669.893,538.111,664.331,537.0794,665.3626,531.5174,660.21,539.9109" style="stroke:#181818;stroke-width:1.0;"/><text fill="#000000" font-family="sans-serif" font-size="13" lengthAdjust="spacing" textLength="18" x="775.5" y="476.0669">EM</text><text fill="#000000" font-family="sans-serif" font-size="13" lengthAdjust="spacing" textLength="63" x="753" y="491.1997">metadata</text><text fill="#000000" font-family="sans-serif" font-size="13" lengthAdjust="spacing" textLength="66" x="751.5" y="506.3325">definitions</text></g><!--link New_XRM to Proposed--><g id="link_New_XRM_Proposed"><path codeLine="52" d="M922.847,425.395 C901.946,450.048 865.805,488.2561 826.5,510 C780.618,535.3822 722.11,549.0008 679.883,556.0464 " fill="none" id="New_XRM-to-Proposed" style="stroke:#181818;stroke-width:1.0;"/><polygon fill="#181818" points="674.816,556.8733,684.3429,559.3708,679.7507,556.0676,683.0538,551.4753,674.816,556.8733" style="stroke:#181818;stroke-width:1.0;"/><text fill="#000000" font-family="sans-serif" font-size="13" lengthAdjust="spacing" textLength="28" x="907.5" y="476.0669">XRM</text><text fill="#000000" font-family="sans-serif" font-size="13" lengthAdjust="spacing" textLength="63" x="890" y="491.1997">metadata</text><text fill="#000000" font-family="sans-serif" font-size="13" lengthAdjust="spacing" textLength="66" x="888.5" y="506.3325">definitions</text></g><!--SRC=[bPB1IWCn48RlUOgyGBi7RnKKrkv1wBgo8YWKIjXCQp2RMJEnjHJVtQHkissthNWBCzy_y-TFAYs8-5WuSQSSy0sBnyRYKadmpUAUk9fp2n-VoeBaDJWXFSRPN86Mn8MHNF3dSiA5ZKB9tfnhQ9GaWQtyo27Q1VjchDhkBFBChoiQC3nNbKMgi5dpp2oLHLE3SPqUAngY1-l8XL49rZ2eKO9Ej710hfjzDPxb-LEuJL6-xisnwnNQTsf4TMGc8_8RbT2pA8sz58d6gQzaNugSCejTPPl1ra07Fq1UU3ILgLZSxisud_XgsKjG2xi0lURCGcCXUF1TPNf-hhbFoYaqGdTYp_rsXzsYHuiDaX-osVUqccNvSUMbR4kilV9WSDFREuhRfaR2N1aLJ10BZnVuorJyIt-ZhCqqaBixZEANcvhJgjwp_Kz-KeHjpkT4RPg7eYo_X8Ue3tbVEIFu0G00]--></g></svg>