<?xml version="1.0" encoding="UTF-8" standalone="no"?><svg xmlns="http://www.w3.org/2000/svg" xmlns:xlink="http://www.w3.org/1999/xlink" contentScriptType="application/ecmascript" contentStyleType="text/css" height="1181.7917px" preserveAspectRatio="none" style="width:2429px;height:1181px;background:#FFFFFF;" version="1.1" viewBox="0 0 2429 1181" width="2429.5px" zoomAndPan="magnify"><defs><filter height="300%" id="f1x46l6toqbgoa" width="300%" x="-1" y="-1"><feGaussianBlur result="blurOut" stdDeviation="4.708333333333333"/><feColorMatrix in="blurOut" result="blurOut2" type="matrix" values="0 0 0 0 0 0 0 0 0 0 0 0 0 0 0 0 0 0 .4 0"/><feOffset dx="9.416666666666666" dy="9.416666666666666" in="blurOut2" result="blurOut3"/><feBlend in="SourceGraphic" in2="blurOut3" mode="normal"/></filter></defs><g><!--MD5=[61a1d941a2a96be9784831ee1a6a3d56]
class DataCite--><rect codeLine="1" fill="#FEFECE" filter="url(#f1x46l6toqbgoa)" height="203.4331" id="DataCite" style="stroke:#A80036;stroke-width:3.53125;" width="736.8542" x="16.4792" y="31.5789"/><ellipse cx="308.9844" cy="69.2456" fill="#ADD1B2" rx="25.8958" ry="25.8958" style="stroke:#A80036;stroke-width:2.3541666666666665;"/><path d="M314.8066,83.7074 Q313.4387,84.4109 311.934,84.7626 Q310.4293,85.1144 308.7683,85.1144 Q302.8668,85.1144 299.7597,81.2256 Q296.6526,77.3369 296.6526,69.9893 Q296.6526,62.6222 299.7597,58.7335 Q302.8668,54.8447 308.7683,54.8447 Q310.4293,54.8447 311.9535,55.1965 Q313.4778,55.5482 314.8066,56.2517 L314.8066,62.6613 Q313.3214,61.2934 311.9242,60.6583 Q310.527,60.0232 309.0418,60.0232 Q305.8761,60.0232 304.264,62.5343 Q302.6518,65.0453 302.6518,69.9893 Q302.6518,74.9138 304.264,77.4248 Q305.8761,79.9359 309.0418,79.9359 Q310.527,79.9359 311.9242,79.3008 Q313.3214,78.6657 314.8066,77.2978 Z " fill="#000000"/><text fill="#000000" font-family="Menlo" font-size="28.25" lengthAdjust="spacing" textLength="131.8333" x="357.2448" y="79.0255">DataCite</text><line style="stroke:#A80036;stroke-width:3.53125;" x1="18.8333" x2="750.9792" y1="106.9123" y2="106.9123"/><text fill="#000000" font-family="Menlo" font-size="25.8958" lengthAdjust="spacing" textLength="708.6042" x="30.6042" y="140.366">DataCite provides DOIs if required metadata</text><text fill="#000000" font-family="Menlo" font-size="25.8958" lengthAdjust="spacing" textLength="477.8958" x="30.6042" y="170.5104">fields and a URL are provided</text><text fill="#000000" font-family="Menlo" font-size="25.8958" lengthAdjust="spacing" textLength="329.5833" x="30.6042" y="200.6548">https://datacite.org</text><line style="stroke:#A80036;stroke-width:3.53125;" x1="18.8333" x2="750.9792" y1="216.1787" y2="216.1787"/><!--MD5=[4ef49dba188a91b8e9aef14209995741]
class OME--><rect codeLine="7" fill="#FEFECE" filter="url(#f1x46l6toqbgoa)" height="173.2887" id="OME" style="stroke:#A80036;stroke-width:3.53125;" width="819.25" x="796.8854" y="45.7039"/><ellipse cx="1171.7865" cy="83.3706" fill="#ADD1B2" rx="25.8958" ry="25.8958" style="stroke:#A80036;stroke-width:2.3541666666666665;"/><path d="M1177.6087,97.8324 Q1176.2408,98.5359 1174.7361,98.8876 Q1173.2314,99.2394 1171.5704,99.2394 Q1165.6688,99.2394 1162.5618,95.3506 Q1159.4547,91.4619 1159.4547,84.1143 Q1159.4547,76.7472 1162.5618,72.8585 Q1165.6688,68.9697 1171.5704,68.9697 Q1173.2314,68.9697 1174.7556,69.3215 Q1176.2798,69.6732 1177.6087,70.3767 L1177.6087,76.7863 Q1176.1235,75.4184 1174.7263,74.7833 Q1173.3291,74.1482 1171.8439,74.1482 Q1168.6782,74.1482 1167.0661,76.6593 Q1165.4539,79.1703 1165.4539,84.1143 Q1165.4539,89.0388 1167.0661,91.5498 Q1168.6782,94.0609 1171.8439,94.0609 Q1173.3291,94.0609 1174.7263,93.4258 Q1176.1235,92.7907 1177.6087,91.4228 Z " fill="#000000"/><text fill="#000000" font-family="Menlo" font-size="28.25" lengthAdjust="spacing" textLength="49.4375" x="1220.0469" y="93.1505">OME</text><line style="stroke:#A80036;stroke-width:3.53125;" x1="799.2396" x2="1613.7813" y1="121.0373" y2="121.0373"/><text fill="#000000" font-family="Menlo" font-size="25.8958" lengthAdjust="spacing" textLength="444.9375" x="811.0104" y="154.491">Open Microscopy Environment</text><text fill="#000000" font-family="Menlo" font-size="25.8958" lengthAdjust="spacing" textLength="791" x="811.0104" y="184.6354">https://docs.openmicroscopy.org/ome-model/latest</text><line style="stroke:#A80036;stroke-width:3.53125;" x1="799.2396" x2="1613.7813" y1="200.1593" y2="200.1593"/><!--MD5=[1ecab98b5dc4aba6426e51e094d5f16b]
class 3D_MMS--><rect codeLine="12" fill="#FEFECE" filter="url(#f1x46l6toqbgoa)" height="173.2887" id="3D_MMS" style="stroke:#A80036;stroke-width:3.53125;" width="440.2292" x="574.4167" y="394.1206"/><ellipse cx="735.0885" cy="431.7873" fill="#ADD1B2" rx="25.8958" ry="25.8958" style="stroke:#A80036;stroke-width:2.3541666666666665;"/><path d="M740.9107,446.2491 Q739.5428,446.9526 738.0381,447.3043 Q736.5335,447.6561 734.8724,447.6561 Q728.9709,447.6561 725.8638,443.7673 Q722.7568,439.8786 722.7568,432.531 Q722.7568,425.1639 725.8638,421.2751 Q728.9709,417.3864 734.8724,417.3864 Q736.5335,417.3864 738.0577,417.7381 Q739.5819,418.0899 740.9107,418.7934 L740.9107,425.203 Q739.4256,423.8351 738.0284,423.2 Q736.6312,422.5649 735.146,422.5649 Q731.9803,422.5649 730.3681,425.0759 Q728.756,427.587 728.756,432.531 Q728.756,437.4554 730.3681,439.9665 Q731.9803,442.4776 735.146,442.4776 Q736.6312,442.4776 738.0284,441.8425 Q739.4256,441.2074 740.9107,439.8395 Z " fill="#000000"/><text fill="#000000" font-family="Menlo" font-size="28.25" lengthAdjust="spacing" textLength="98.875" x="783.349" y="441.5672">3D_MMS</text><line style="stroke:#A80036;stroke-width:3.53125;" x1="576.7708" x2="1012.2917" y1="469.4539" y2="469.4539"/><text fill="#000000" font-family="Menlo" font-size="25.8958" lengthAdjust="spacing" textLength="65.9167" x="588.5417" y="502.9077">DORY</text><text fill="#000000" font-family="Menlo" font-size="25.8958" lengthAdjust="spacing" textLength="411.9792" x="588.5417" y="533.0521">https://doryworkspace.org</text><line style="stroke:#A80036;stroke-width:3.53125;" x1="576.7708" x2="1012.2917" y1="548.576" y2="548.576"/><!--MD5=[4a5662e242165562a165aab297989f4f]
class Essential_3D_MMS--><rect codeLine="17" fill="#FEFECE" filter="url(#f1x46l6toqbgoa)" height="113" id="Essential_3D_MMS" style="stroke:#A80036;stroke-width:3.53125;" width="339" x="495.5521" y="728.4123"/><ellipse cx="530.8646" cy="766.0789" fill="#ADD1B2" rx="25.8958" ry="25.8958" style="stroke:#A80036;stroke-width:2.3541666666666665;"/><path d="M536.6868,780.5407 Q535.3189,781.2442 533.8142,781.596 Q532.3095,781.9477 530.6485,781.9477 Q524.747,781.9477 521.6399,778.059 Q518.5328,774.1702 518.5328,766.8227 Q518.5328,759.4555 521.6399,755.5668 Q524.747,751.6781 530.6485,751.6781 Q532.3095,751.6781 533.8337,752.0298 Q535.358,752.3816 536.6868,753.085 L536.6868,759.4946 Q535.2016,758.1267 533.8044,757.4916 Q532.4072,756.8565 530.9221,756.8565 Q527.7563,756.8565 526.1442,759.3676 Q524.532,761.8787 524.532,766.8227 Q524.532,771.7471 526.1442,774.2582 Q527.7563,776.7692 530.9221,776.7692 Q532.4072,776.7692 533.8044,776.1342 Q535.2016,775.4991 536.6868,774.1312 Z " fill="#000000"/><text fill="#000000" font-family="Menlo" font-size="28.25" lengthAdjust="spacing" textLength="263.6667" x="563.8229" y="775.8588">Essential_3D_MMS</text><line style="stroke:#A80036;stroke-width:3.53125;" x1="497.9062" x2="832.1979" y1="803.7456" y2="803.7456"/><line style="stroke:#A80036;stroke-width:3.53125;" x1="497.9062" x2="832.1979" y1="822.5789" y2="822.5789"/><!--MD5=[265d818519116717436a2acac5665c23]
class NeMO--><rect codeLine="20" fill="#FEFECE" filter="url(#f1x46l6toqbgoa)" height="143.1444" id="NeMO" style="stroke:#A80036;stroke-width:3.53125;" width="141.25" x="1658.5104" y="61.006"/><ellipse cx="1693.8229" cy="98.6727" fill="#ADD1B2" rx="25.8958" ry="25.8958" style="stroke:#A80036;stroke-width:2.3541666666666665;"/><path d="M1699.6451,113.1345 Q1698.2772,113.838 1696.7725,114.1897 Q1695.2678,114.5415 1693.6068,114.5415 Q1687.7053,114.5415 1684.5982,110.6527 Q1681.4911,106.764 1681.4911,99.4164 Q1681.4911,92.0493 1684.5982,88.1606 Q1687.7053,84.2718 1693.6068,84.2718 Q1695.2678,84.2718 1696.7921,84.6236 Q1698.3163,84.9753 1699.6451,85.6788 L1699.6451,92.0884 Q1698.16,90.7205 1696.7628,90.0854 Q1695.3655,89.4503 1693.8804,89.4503 Q1690.7147,89.4503 1689.1025,91.9614 Q1687.4903,94.4724 1687.4903,99.4164 Q1687.4903,104.3409 1689.1025,106.8519 Q1690.7147,109.363 1693.8804,109.363 Q1695.3655,109.363 1696.7628,108.7279 Q1698.16,108.0928 1699.6451,106.7249 Z " fill="#000000"/><text fill="#000000" font-family="Menlo" font-size="28.25" lengthAdjust="spacing" textLength="65.9167" x="1726.7813" y="108.4526">NeMO</text><line style="stroke:#A80036;stroke-width:3.53125;" x1="1660.8646" x2="1797.4063" y1="136.3394" y2="136.3394"/><text fill="#000000" font-family="Menlo" font-size="25.8958" lengthAdjust="spacing" textLength="98.875" x="1672.6354" y="169.7931">BdBag?</text><line style="stroke:#A80036;stroke-width:3.53125;" x1="1660.8646" x2="1797.4063" y1="185.3171" y2="185.3171"/><!--MD5=[5c665036eeecfb96b2421def62007e5b]
class BIL--><rect codeLine="24" fill="#FEFECE" filter="url(#f1x46l6toqbgoa)" height="203.4331" id="BIL" style="stroke:#A80036;stroke-width:3.53125;" width="555.5833" x="1842.1354" y="31.5789"/><ellipse cx="2085.2031" cy="69.2456" fill="#ADD1B2" rx="25.8958" ry="25.8958" style="stroke:#A80036;stroke-width:2.3541666666666665;"/><path d="M2091.0253,83.7074 Q2089.6574,84.4109 2088.1527,84.7626 Q2086.648,85.1144 2084.987,85.1144 Q2079.0855,85.1144 2075.9784,81.2256 Q2072.8713,77.3369 2072.8713,69.9893 Q2072.8713,62.6222 2075.9784,58.7335 Q2079.0855,54.8447 2084.987,54.8447 Q2086.648,54.8447 2088.1723,55.1965 Q2089.6965,55.5482 2091.0253,56.2517 L2091.0253,62.6613 Q2089.5402,61.2934 2088.143,60.6583 Q2086.7457,60.0232 2085.2606,60.0232 Q2082.0949,60.0232 2080.4827,62.5343 Q2078.8706,65.0453 2078.8706,69.9893 Q2078.8706,74.9138 2080.4827,77.4248 Q2082.0949,79.9359 2085.2606,79.9359 Q2086.7457,79.9359 2088.143,79.3008 Q2089.5402,78.6657 2091.0253,77.2978 Z " fill="#000000"/><text fill="#000000" font-family="Menlo" font-size="28.25" lengthAdjust="spacing" textLength="49.4375" x="2133.4635" y="79.0255">BIL</text><line style="stroke:#A80036;stroke-width:3.53125;" x1="1844.4896" x2="2395.3646" y1="106.9123" y2="106.9123"/><text fill="#000000" font-family="Menlo" font-size="25.8958" lengthAdjust="spacing" textLength="411.9792" x="1856.2604" y="140.366">Required metadata largely</text><text fill="#000000" font-family="Menlo" font-size="25.8958" lengthAdjust="spacing" textLength="527.3333" x="1856.2604" y="170.5104">represented in Essential_3D_MMS;</text><text fill="#000000" font-family="Menlo" font-size="25.8958" lengthAdjust="spacing" textLength="461.4167" x="1856.2604" y="200.6548">Optional metadata in 3D_MMS.</text><line style="stroke:#A80036;stroke-width:3.53125;" x1="1844.4896" x2="2395.3646" y1="216.1787" y2="216.1787"/><!--MD5=[b808f8285c42b22e9b0b58977908952e]
class BKP_Data_Collection--><rect codeLine="30" fill="#FEFECE" filter="url(#f1x46l6toqbgoa)" height="113" id="BKP_Data_Collection" style="stroke:#A80036;stroke-width:3.53125;" width="388.4375" x="1534.9167" y="424.7248"/><ellipse cx="1570.2292" cy="462.3914" fill="#ADD1B2" rx="25.8958" ry="25.8958" style="stroke:#A80036;stroke-width:2.3541666666666665;"/><path d="M1576.0514,476.8532 Q1574.6835,477.5567 1573.1788,477.9085 Q1571.6741,478.2602 1570.0131,478.2602 Q1564.1116,478.2602 1561.0045,474.3715 Q1557.8974,470.4827 1557.8974,463.1352 Q1557.8974,455.768 1561.0045,451.8793 Q1564.1116,447.9906 1570.0131,447.9906 Q1571.6741,447.9906 1573.1983,448.3423 Q1574.7225,448.6941 1576.0514,449.3975 L1576.0514,455.8071 Q1574.5662,454.4392 1573.169,453.8041 Q1571.7718,453.169 1570.2866,453.169 Q1567.1209,453.169 1565.5088,455.6801 Q1563.8966,458.1912 1563.8966,463.1352 Q1563.8966,468.0596 1565.5088,470.5707 Q1567.1209,473.0817 1570.2866,473.0817 Q1571.7718,473.0817 1573.169,472.4467 Q1574.5662,471.8116 1576.0514,470.4437 Z " fill="#000000"/><text fill="#000000" font-family="Menlo" font-size="28.25" lengthAdjust="spacing" textLength="313.1042" x="1603.1875" y="472.1713">BKP_Data_Collection</text><line style="stroke:#A80036;stroke-width:3.53125;" x1="1537.2708" x2="1921" y1="500.0581" y2="500.0581"/><line style="stroke:#A80036;stroke-width:3.53125;" x1="1537.2708" x2="1921" y1="518.8914" y2="518.8914"/><!--MD5=[23a9c8837451c640f71dd0a138625d44]
class Data_Wrangling--><rect codeLine="33" fill="#FEFECE" filter="url(#f1x46l6toqbgoa)" height="113" id="Data_Wrangling" style="stroke:#A80036;stroke-width:3.53125;" width="306.0417" x="1966.9062" y="424.7248"/><ellipse cx="2002.2187" cy="462.3914" fill="#ADD1B2" rx="25.8958" ry="25.8958" style="stroke:#A80036;stroke-width:2.3541666666666665;"/><path d="M2008.0409,476.8532 Q2006.673,477.5567 2005.1684,477.9085 Q2003.6637,478.2602 2002.0026,478.2602 Q1996.1011,478.2602 1992.994,474.3715 Q1989.887,470.4827 1989.887,463.1352 Q1989.887,455.768 1992.994,451.8793 Q1996.1011,447.9906 2002.0026,447.9906 Q2003.6637,447.9906 2005.1879,448.3423 Q2006.7121,448.6941 2008.0409,449.3975 L2008.0409,455.8071 Q2006.5558,454.4392 2005.1586,453.8041 Q2003.7614,453.169 2002.2762,453.169 Q1999.1105,453.169 1997.4983,455.6801 Q1995.8862,458.1912 1995.8862,463.1352 Q1995.8862,468.0596 1997.4983,470.5707 Q1999.1105,473.0817 2002.2762,473.0817 Q2003.7614,473.0817 2005.1586,472.4467 Q2006.5558,471.8116 2008.0409,470.4437 Z " fill="#000000"/><text fill="#000000" font-family="Menlo" font-size="28.25" lengthAdjust="spacing" textLength="230.7083" x="2035.1771" y="472.1713">Data_Wrangling</text><line style="stroke:#A80036;stroke-width:3.53125;" x1="1969.2604" x2="2270.5938" y1="500.0581" y2="500.0581"/><line style="stroke:#A80036;stroke-width:3.53125;" x1="1969.2604" x2="2270.5938" y1="518.8914" y2="518.8914"/><!--MD5=[104e5d109054ca2306d3d90fb1853d58]
class Proposed--><rect codeLine="36" fill="#FEFECE" filter="url(#f1x46l6toqbgoa)" height="113" id="Proposed" style="stroke:#A80036;stroke-width:3.53125;" width="207.1667" x="975.8021" y="1036.8081"/><ellipse cx="1011.1146" cy="1074.4748" fill="#ADD1B2" rx="25.8958" ry="25.8958" style="stroke:#A80036;stroke-width:2.3541666666666665;"/><path d="M1016.9368,1088.9366 Q1015.5689,1089.6401 1014.0642,1089.9918 Q1012.5595,1090.3436 1010.8985,1090.3436 Q1004.997,1090.3436 1001.8899,1086.4548 Q998.7828,1082.5661 998.7828,1075.2185 Q998.7828,1067.8514 1001.8899,1063.9626 Q1004.997,1060.0739 1010.8985,1060.0739 Q1012.5595,1060.0739 1014.0837,1060.4256 Q1015.608,1060.7774 1016.9368,1061.4809 L1016.9368,1067.8905 Q1015.4516,1066.5226 1014.0544,1065.8875 Q1012.6572,1065.2524 1011.1721,1065.2524 Q1008.0063,1065.2524 1006.3942,1067.7634 Q1004.782,1070.2745 1004.782,1075.2185 Q1004.782,1080.1429 1006.3942,1082.654 Q1008.0063,1085.1651 1011.1721,1085.1651 Q1012.6572,1085.1651 1014.0544,1084.53 Q1015.4516,1083.8949 1016.9368,1082.527 Z " fill="#000000"/><text fill="#000000" font-family="Menlo" font-size="28.25" lengthAdjust="spacing" textLength="131.8333" x="1044.0729" y="1084.2547">Proposed</text><line style="stroke:#A80036;stroke-width:3.53125;" x1="978.1562" x2="1180.6146" y1="1112.1414" y2="1112.1414"/><line style="stroke:#A80036;stroke-width:3.53125;" x1="978.1562" x2="1180.6146" y1="1130.9748" y2="1130.9748"/><!--MD5=[bdfb6532d8c02e8171786d9fcdd51f0c]
class New_EM--><rect codeLine="39" fill="#FEFECE" filter="url(#f1x46l6toqbgoa)" height="113" id="New_EM" style="stroke:#A80036;stroke-width:3.53125;" width="174.2083" x="1173.5521" y="728.4123"/><ellipse cx="1208.8646" cy="766.0789" fill="#ADD1B2" rx="25.8958" ry="25.8958" style="stroke:#A80036;stroke-width:2.3541666666666665;"/><path d="M1214.6868,780.5407 Q1213.3189,781.2442 1211.8142,781.596 Q1210.3095,781.9477 1208.6485,781.9477 Q1202.747,781.9477 1199.6399,778.059 Q1196.5328,774.1702 1196.5328,766.8227 Q1196.5328,759.4555 1199.6399,755.5668 Q1202.747,751.6781 1208.6485,751.6781 Q1210.3095,751.6781 1211.8337,752.0298 Q1213.358,752.3816 1214.6868,753.085 L1214.6868,759.4946 Q1213.2016,758.1267 1211.8044,757.4916 Q1210.4072,756.8565 1208.9221,756.8565 Q1205.7563,756.8565 1204.1442,759.3676 Q1202.532,761.8787 1202.532,766.8227 Q1202.532,771.7471 1204.1442,774.2582 Q1205.7563,776.7692 1208.9221,776.7692 Q1210.4072,776.7692 1211.8044,776.1342 Q1213.2016,775.4991 1214.6868,774.1312 Z " fill="#000000"/><text fill="#000000" font-family="Menlo" font-size="28.25" lengthAdjust="spacing" textLength="98.875" x="1241.8229" y="775.8588">New_EM</text><line style="stroke:#A80036;stroke-width:3.53125;" x1="1175.9063" x2="1345.4063" y1="803.7456" y2="803.7456"/><line style="stroke:#A80036;stroke-width:3.53125;" x1="1175.9063" x2="1345.4063" y1="822.5789" y2="822.5789"/><!--MD5=[e160868683c6f55a5d75635110509402]
class New_XRM--><rect codeLine="42" fill="#FEFECE" filter="url(#f1x46l6toqbgoa)" height="113" id="New_XRM" style="stroke:#A80036;stroke-width:3.53125;" width="190.6875" x="1410.1458" y="728.4123"/><ellipse cx="1445.4583" cy="766.0789" fill="#ADD1B2" rx="25.8958" ry="25.8958" style="stroke:#A80036;stroke-width:2.3541666666666665;"/><path d="M1451.2805,780.5407 Q1449.9126,781.2442 1448.4079,781.596 Q1446.9032,781.9477 1445.2422,781.9477 Q1439.3407,781.9477 1436.2336,778.059 Q1433.1265,774.1702 1433.1265,766.8227 Q1433.1265,759.4555 1436.2336,755.5668 Q1439.3407,751.6781 1445.2422,751.6781 Q1446.9032,751.6781 1448.4275,752.0298 Q1449.9517,752.3816 1451.2805,753.085 L1451.2805,759.4946 Q1449.7954,758.1267 1448.3982,757.4916 Q1447.001,756.8565 1445.5158,756.8565 Q1442.3501,756.8565 1440.7379,759.3676 Q1439.1258,761.8787 1439.1258,766.8227 Q1439.1258,771.7471 1440.7379,774.2582 Q1442.3501,776.7692 1445.5158,776.7692 Q1447.001,776.7692 1448.3982,776.1342 Q1449.7954,775.4991 1451.2805,774.1312 Z " fill="#000000"/><text fill="#000000" font-family="Menlo" font-size="28.25" lengthAdjust="spacing" textLength="115.3542" x="1478.4167" y="775.8588">New_XRM</text><line style="stroke:#A80036;stroke-width:3.53125;" x1="1412.5" x2="1598.4792" y1="803.7456" y2="803.7456"/><line style="stroke:#A80036;stroke-width:3.53125;" x1="1412.5" x2="1598.4792" y1="822.5789" y2="822.5789"/><path d="M699.7572,568.7272 C689.6875,581.8104 680.8199,595.9211 674.4688,610.7039 C658.6633,647.4923 656.8241,692.8536 658.6608,727.7336 " fill="none" style="stroke:#A80036;stroke-width:2.3541666666666665;"/><polygon fill="#A80036" points="658.6608,727.7336,666.9503,706.0802,658.0418,715.979,648.143,707.0705,658.6608,727.7336" style="stroke:#A80036;stroke-width:2.3541666666666665;"/><text fill="#000000" font-family="Menlo" font-size="30.6042" lengthAdjust="spacing" textLength="150.6667" x="705.0729" y="641.4656">metadata</text><text fill="#000000" font-family="Menlo" font-size="30.6042" lengthAdjust="spacing" textLength="207.1667" x="676.8229" y="677.0907">definitions</text><path d="M1104.6728,220.1239 C1041.2906,273.0028 960.0553,340.7762 896.6251,393.6952 " fill="none" style="stroke:#A80036;stroke-width:2.3541666666666665;"/><polygon fill="#A80036" points="896.6251,393.6952,918.9266,387.3528,905.6635,386.1546,906.8617,372.8914,896.6251,393.6952" style="stroke:#A80036;stroke-width:2.3541666666666665;"/><text fill="#000000" font-family="Menlo" font-size="30.6042" lengthAdjust="spacing" textLength="150.6667" x="1055.8438" y="307.1739">metadata</text><text fill="#000000" font-family="Menlo" font-size="30.6042" lengthAdjust="spacing" textLength="207.1667" x="1027.5938" y="342.7991">definitions</text><path d="M503.3868,234.577 C563.4031,284.9355 635.5253,345.4518 692.9714,393.6538 " fill="none" style="stroke:#A80036;stroke-width:2.3541666666666665;"/><polygon fill="#A80036" points="692.9714,393.6538,682.7936,372.8212,683.9544,386.0877,670.6879,387.2485,692.9714,393.6538" style="stroke:#A80036;stroke-width:2.3541666666666665;"/><text fill="#000000" font-family="Menlo" font-size="30.6042" lengthAdjust="spacing" textLength="150.6667" x="669.7604" y="307.1739">metadata</text><text fill="#000000" font-family="Menlo" font-size="30.6042" lengthAdjust="spacing" textLength="207.1667" x="641.5104" y="342.7991">definitions</text><path d="M651.0167,842.0897 C642.7671,887.9931 639.8168,952.5424 674.4688,994.4331 C712.3553,1040.2342 868.7445,1067.0278 975.6983,1080.33 " fill="none" style="stroke:#A80036;stroke-width:2.3541666666666665;"/><polygon fill="#A80036" points="975.6983,1080.33,955.8351,1068.3703,964.0175,1078.8772,953.5106,1087.0596,975.6983,1080.33" style="stroke:#A80036;stroke-width:2.3541666666666665;"/><text fill="#000000" font-family="Menlo" font-size="30.6042" lengthAdjust="spacing" textLength="150.6667" x="705.0729" y="914.5489">required</text><text fill="#000000" font-family="Menlo" font-size="30.6042" lengthAdjust="spacing" textLength="150.6667" x="705.0729" y="950.1741">metadata</text><text fill="#000000" font-family="Menlo" font-size="30.6042" lengthAdjust="spacing" textLength="207.1667" x="676.8229" y="985.7992">definitions</text><path d="M863.0398,569.0102 C871.7786,582.4523 879.9029,596.5858 886.3438,610.7039 C930.0587,706.5265 902.4807,743.1866 940.4896,841.4123 C967.8661,912.1607 1012.1317,987.4772 1043.32,1036.6306 " fill="none" style="stroke:#A80036;stroke-width:2.3541666666666665;"/><polygon fill="#A80036" points="1043.32,1036.6306,1039.9197,1013.6955,1037.0137,1026.6917,1024.0174,1023.7856,1043.32,1036.6306" style="stroke:#A80036;stroke-width:2.3541666666666665;"/><text fill="#000000" font-family="Menlo" font-size="30.6042" lengthAdjust="spacing" textLength="150.6667" x="971.0937" y="760.351">optional</text><text fill="#000000" font-family="Menlo" font-size="30.6042" lengthAdjust="spacing" textLength="150.6667" x="971.0937" y="795.9762">metadata</text><text fill="#000000" font-family="Menlo" font-size="30.6042" lengthAdjust="spacing" textLength="207.1667" x="942.8437" y="831.6013">definitions</text><path d="M1228.2487,841.5597 C1195.4575,896.4954 1145.0327,980.9735 1112.1236,1036.1068 " fill="none" style="stroke:#A80036;stroke-width:2.3541666666666665;"/><polygon fill="#A80036" points="1112.1236,1036.1068,1131.0688,1022.7402,1118.1566,1025.9996,1114.8972,1013.0875,1112.1236,1036.1068" style="stroke:#A80036;stroke-width:2.3541666666666665;"/><text fill="#000000" font-family="Menlo" font-size="30.6042" lengthAdjust="spacing" textLength="37.6667" x="1291.2604" y="914.5489">EM</text><text fill="#000000" font-family="Menlo" font-size="30.6042" lengthAdjust="spacing" textLength="150.6667" x="1234.7604" y="950.1741">metadata</text><text fill="#000000" font-family="Menlo" font-size="30.6042" lengthAdjust="spacing" textLength="207.1667" x="1206.5104" y="985.7992">definitions</text><path d="M1498.2582,841.6335 C1489.1884,888.5291 1469.1296,954.7835 1425.4479,994.4331 C1359.4038,1054.3809 1259.1625,1077.4729 1183.5363,1086.1786 " fill="none" style="stroke:#A80036;stroke-width:2.3541666666666665;"/><polygon fill="#A80036" points="1183.5363,1086.1786,1205.6616,1093.1105,1195.2299,1084.8325,1203.5079,1074.4007,1183.5363,1086.1786" style="stroke:#A80036;stroke-width:2.3541666666666665;"/><text fill="#000000" font-family="Menlo" font-size="30.6042" lengthAdjust="spacing" textLength="56.5" x="1566.6979" y="914.5489">XRM</text><text fill="#000000" font-family="Menlo" font-size="30.6042" lengthAdjust="spacing" textLength="150.6667" x="1519.6146" y="950.1741">metadata</text><text fill="#000000" font-family="Menlo" font-size="30.6042" lengthAdjust="spacing" textLength="207.1667" x="1491.3646" y="985.7992">definitions</text><!--MD5=[0d60cfe2815db684b742efa04c826392]
@startuml
!pragma layout smetana
skinparamlocked dpi 226
skinparamlocked defaultFontName Menlo
class DataCite {
DataCite provides DOIs if required metadata 
fields and a URL are provided
https://datacite.org
}

class OME {
Open Microscopy Environment
https://docs.openmicroscopy.org/ome-model/latest
}

class 3D_MMS {
DORY
https://doryworkspace.org
}

class Essential_3D_MMS {
}

class NeMO {
BdBag?
}

class BIL {
Required metadata largely 
represented in Essential_3D_MMS; 
Optional metadata in 3D_MMS.
}

class BKP_Data_Collection {
}

class Data_Wrangling {
}

class Proposed {
}

class New_EM {
}

class New_XRM {
}


3D_MMS - -> Essential_3D_MMS: metadata\ndefinitions
OME - -> 3D_MMS: metadata\ndefinitions
DataCite - -> 3D_MMS: metadata\ndefinitions

Essential_3D_MMS - -> Proposed: required\nmetadata\ndefinitions
3D_MMS - -> Proposed: optional\nmetadata\ndefinitions
New_EM - -> Proposed: EM\nmetadata\ndefinitions
New_XRM - -> Proposed: XRM\nmetadata\ndefinitions


@enduml

PlantUML version 1.2022.1(Tue Feb 01 13:19:58 EST 2022)
(GPL source distribution)
Java Runtime: OpenJDK Runtime Environment
JVM: OpenJDK 64-Bit Server VM
Default Encoding: UTF-8
Language: en
Country: US
--></g></svg>